<?xml version="1.0" encoding="utf-8"?>
<!-- Generator: Adobe Illustrator 15.0.0, SVG Export Plug-In . SVG Version: 6.00 Build 0)  -->
<!DOCTYPE svg PUBLIC "-//W3C//DTD SVG 1.1//EN" "http://www.w3.org/Graphics/SVG/1.1/DTD/svg11.dtd">
<svg version="1.1" id="Layer_1" xmlns="http://www.w3.org/2000/svg" xmlns:xlink="http://www.w3.org/1999/xlink" x="0px" y="0px"
	 width="12px" height="13px" viewBox="0 0 200 200" enable-background="new 0 0 200 200" xml:space="preserve">
<path fill="#ffffff" d="M107.709,195.965c-3.723,5.38-11.692,5.38-15.415,0C35.535,113.683,25,105.236,25,75c0-41.42,33.58-75,75-75
	c41.422,0,75,33.58,75,75C175,105.236,164.465,113.683,107.709,195.965z M100,38.722c-12.425,0-22.496,10.071-22.496,22.497
	c0,12.425,10.071,22.497,22.496,22.497c12.427,0,22.496-10.072,22.496-22.497C122.496,48.792,112.427,38.722,100,38.722z"/>
</svg>
