<?xml version="1.0" encoding="utf-8"?>
<!-- Generator: Adobe Illustrator 15.0.0, SVG Export Plug-In . SVG Version: 6.00 Build 0)  -->
<!DOCTYPE svg PUBLIC "-//W3C//DTD SVG 1.1//EN" "http://www.w3.org/Graphics/SVG/1.1/DTD/svg11.dtd">
<svg version="1.1" id="Layer_1" xmlns="http://www.w3.org/2000/svg" xmlns:xlink="http://www.w3.org/1999/xlink" x="0px" y="0px"
	 width="12px" height="13px" viewBox="0 0 200 200" enable-background="new 0 0 200 200" xml:space="preserve">
<path fill="#ffffff" d="M195.595,177.7c-2.98,6.959-10.938,11.504-17.326,15.057c-8.382,4.545-16.905,7.243-26.425,7.243
	c-13.207,0-25.137-5.397-37.212-9.8c-8.664-3.125-17.047-6.959-24.859-11.789c-24.148-14.916-53.266-44.035-68.182-68.184
	c-4.83-7.813-8.666-16.191-11.792-24.859C5.396,73.295,0,61.365,0,48.154c0-9.516,2.701-18.039,7.244-26.418
	c3.551-6.395,8.096-14.348,15.055-17.332C26.989,2.275,36.93,0,42.046,0c0.996,0,1.988,0,2.984,0.426
	c2.982,0.994,6.105,7.955,7.527,10.795c4.545,8.098,8.949,16.336,13.637,24.291c2.27,3.693,6.531,8.238,6.531,12.641
	c0,8.666-25.709,21.307-25.709,28.978c0,3.832,3.551,8.805,5.541,12.213c14.348,25.854,32.242,43.748,58.1,58.096
	c3.406,1.99,8.377,5.543,12.213,5.543c7.669,0,20.312-25.707,28.974-25.707c4.406,0,8.953,4.258,12.645,6.531
	c7.957,4.691,16.194,9.094,24.29,13.637c2.844,1.422,9.802,4.545,10.796,7.531c0.426,0.992,0.426,1.988,0.426,2.98
	C200,163.069,197.728,173.013,195.595,177.7z"/>
</svg>
