<?xml version="1.0" encoding="utf-8"?>
<!-- Generator: Adobe Illustrator 15.0.0, SVG Export Plug-In . SVG Version: 6.00 Build 0)  -->
<!DOCTYPE svg PUBLIC "-//W3C//DTD SVG 1.1//EN" "http://www.w3.org/Graphics/SVG/1.1/DTD/svg11.dtd">
<svg version="1.1" id="Layer_1" xmlns="http://www.w3.org/2000/svg" xmlns:xlink="http://www.w3.org/1999/xlink" x="0px" y="0px"
	 width="15px" height="15px" viewBox="0 0 200 200" enable-background="new 0 0 200 200" xml:space="preserve">
<path fill="#ffffff" d="M21.309,153.567H53.5v32.145H21.309V153.567z M60.652,153.567h35.771v32.145H60.652V153.567z M21.309,110.712H53.5v35.716
	H21.309V110.712z M60.652,110.712h35.771v35.716H60.652V110.712z M21.309,71.429H53.5v32.143H21.309V71.429z M103.577,153.567
	h35.769v32.145h-35.769V153.567z M60.652,71.429h35.771v32.143H60.652V71.429z M146.501,153.567h32.189v32.145h-32.189V153.567z
	 M103.577,110.712h35.769v35.716h-35.769V110.712z M63.167,52.511c-0.709,0.708-1.546,1.06-2.515,1.06H53.5
	c-0.971,0-1.81-0.35-2.515-1.06c-0.709-0.706-1.062-1.542-1.062-2.511V17.856c0-0.967,0.353-1.805,1.062-2.512
	c0.707-0.704,1.546-1.059,2.515-1.059h7.152c0.969,0,1.808,0.353,2.515,1.059c0.709,0.708,1.062,1.545,1.062,2.512 M146.501,110.712
	h32.189v35.716h-32.189V110.712z M103.577,71.429h35.769v32.143h-35.769V71.429z M146.501,71.429h32.189v32.143h-32.189V71.429z
	 M149.014,52.511c-0.707,0.708-1.548,1.06-2.513,1.06h-7.155c-0.969,0-1.808-0.35-2.516-1.06c-0.71-0.708-1.062-1.542-1.062-2.511
	V17.856c0-0.967,0.352-1.805,1.062-2.512c0.708-0.704,1.547-1.059,2.516-1.059h7.155c0.965,0,1.806,0.353,2.513,1.059
	c0.709,0.708,1.063,1.545,1.063,2.512V50C150.074,50.969,149.723,51.805,149.014,52.511z M188.751,32.813
	c-2.832-2.827-6.188-4.243-10.061-4.243h-14.308V17.856c0-4.911-1.752-9.114-5.254-12.612C155.625,1.749,151.417,0,146.501,0h-7.155
	c-4.92,0-9.133,1.749-12.632,5.244c-3.504,3.498-5.251,7.701-5.251,12.612v10.713H78.538V17.856c0-4.911-1.752-9.114-5.254-12.612
	C69.78,1.749,65.571,0,60.652,0H53.5c-4.919,0-9.13,1.749-12.632,5.244c-3.502,3.498-5.254,7.701-5.254,12.612v10.713H21.309
	c-3.875,0-7.229,1.416-10.06,4.243C8.416,35.64,7,38.989,7,42.856v142.856c0,3.867,1.416,7.218,4.249,10.046
	c2.831,2.827,6.185,4.242,10.06,4.242H178.69c3.873,0,7.229-1.415,10.063-4.242c2.834-2.828,4.247-6.175,4.247-10.046V42.856
	C192.995,38.989,191.583,35.64,188.751,32.813z"/>
</svg>
