<?xml version="1.0" encoding="utf-8"?>
<!-- Generator: Adobe Illustrator 15.0.0, SVG Export Plug-In . SVG Version: 6.00 Build 0)  -->
<!DOCTYPE svg PUBLIC "-//W3C//DTD SVG 1.1//EN" "http://www.w3.org/Graphics/SVG/1.1/DTD/svg11.dtd">
<svg version="1.1" id="Layer_1" xmlns="http://www.w3.org/2000/svg" xmlns:xlink="http://www.w3.org/1999/xlink" x="0px" y="0px"
	 width="88.25px" height="71px" viewBox="0 0 88.25 71" enable-background="new 0 0 88.25 71" xml:space="preserve">
<path fill="#C5A981" d="M44.122,60.495c-10.433,0-20.075-4.82-27.885-13.939c-5.854-6.838-8.588-13.571-8.702-13.854l-2.168-5.41
	l4.114,4.128c0.128,0.128,12.938,12.648,34.641,12.648c21.76,0,34.515-12.521,34.641-12.647l4.115-4.13l-2.169,5.411
	c-0.113,0.283-2.846,7.017-8.702,13.854C64.197,55.675,54.555,60.495,44.122,60.495z M13.081,38.167
	c1.531,2.49,3.222,4.816,5.023,6.913c7.437,8.65,16.19,13.036,26.018,13.036S62.703,53.73,70.14,45.08
	c1.803-2.097,3.493-4.423,5.023-6.913l-0.554-0.539c-6.196,4.022-16.516,8.818-30.487,8.818c-13.971,0-24.29-4.796-30.487-8.818
	L13.081,38.167z M43.298,30.571c-16.454,0-26.866-2.17-32.704-3.988c-4.672-1.469-6.685-2.791-6.768-2.848l-2.829-1.885l3.387-0.289
	c0.117-0.01,11.704-1.08,18.714-7.36c2.695-2.417,5.821-3.696,9.041-3.696c4.701,0,8.784,2.634,10.387,5.236
	c0.256,0.389,1.003,1.22,1.598,1.22c0.624,0,1.397-0.906,1.608-1.236c1.6-2.598,5.674-5.22,10.376-5.22
	c3.219,0,6.345,1.279,9.04,3.696c7.018,6.288,18.598,7.351,18.714,7.36l3.392,0.289l-2.834,1.886
	c-0.108,0.072-2.742,1.79-8.931,3.475c-8.195,2.229-18.471,3.36-30.541,3.36H43.298z M32.139,12.884
	c-2.661,0-5.169,1.039-7.453,3.088c-4.517,4.046-10.579,6.08-14.869,7.073l-1.328,0.308l1.286,0.452
	c0.488,0.172,1.003,0.343,1.53,0.509c5.679,1.77,15.839,3.879,31.993,3.879h1.649c14.771,0,24.422-1.781,29.917-3.276
	c1.271-0.347,2.482-0.72,3.6-1.112l1.289-0.453l-1.33-0.309c-4.289-0.992-10.349-3.024-14.862-7.07
	c-2.285-2.05-4.792-3.088-7.453-3.088c-4.023,0-7.312,2.4-8.361,4.104c-0.15,0.236-1.562,2.351-3.623,2.351
	c-2.061,0-3.46-2.095-3.612-2.333C39.458,15.297,36.162,12.884,32.139,12.884z"/>
</svg>
