<?xml version="1.0" encoding="utf-8"?>
<!-- Generator: Adobe Illustrator 15.0.0, SVG Export Plug-In . SVG Version: 6.00 Build 0)  -->
<!DOCTYPE svg PUBLIC "-//W3C//DTD SVG 1.1//EN" "http://www.w3.org/Graphics/SVG/1.1/DTD/svg11.dtd">
<svg version="1.1" id="Layer_1" xmlns="http://www.w3.org/2000/svg" xmlns:xlink="http://www.w3.org/1999/xlink" x="0px" y="0px"
	 width="59.75px" height="71px" viewBox="0 0 59.75 71" enable-background="new 0 0 59.75 71" xml:space="preserve">
<g>
	<g>
		<path fill="#C5A981" d="M12.121,28.056c0,3.021,1.387,4.695,1.387,5.609c0,0.53-0.046,5.149,0.637,7.889
			c0.49,1.967,1.146,3.33,1.94,3.33c0.792,0,0.751-2.559,1.113-4.416c0.363-1.852,1.264-4.213,2.318-4.213s1.955,2.361,2.318,4.213
			c0.365,1.857,0.324,4.416,1.113,4.416c0.794,0,1.45-1.363,1.943-3.33c0.682-2.74,0.637-7.359,0.637-7.889
			c0-0.914,1.387-2.588,1.387-5.609c0-3.187-2.752-3.885-3.7-3.885c-0.946,0-2.116,0.539-3.698,0.539
			c-1.583,0-2.749-0.539-3.695-0.539C14.873,24.171,12.121,24.87,12.121,28.056z M22.479,15.293h14.795
			c2.451,0,4.438-1.989,4.438-4.437V6.416h-5.92c0-3.269-2.646-5.915-5.917-5.915c-3.267,0-5.916,2.646-5.916,5.915h-5.917v4.441
			C18.041,13.304,20.027,15.293,22.479,15.293z M29.874,3.308c1.72,0,3.106,1.392,3.106,3.107c0,1.72-1.387,3.107-3.106,3.107
			c-1.714,0-3.106-1.388-3.106-3.107C26.768,4.7,28.16,3.308,29.874,3.308z M52.066,6.416h-7.398v3.427h8.414
			c0.816,0,1.479,1.675,1.479,2.49v38.466H44.205c-3.27,0-5.918,2.65-5.918,5.918v10.357H6.668c-0.816,0-1.479-0.666-1.479-1.479
			V11.318c0-0.815,0.662-1.476,1.479-1.476h8.413V6.416H7.683c-3.267,0-5.917,2.651-5.917,5.917V64.58c0,3.27,2.65,5.92,5.917,5.92
			h44.384c3.27,0,5.918-2.65,5.918-5.918V12.334C57.984,9.067,55.336,6.416,52.066,6.416z M41.244,67.076V56.721
			c0-1.637,1.326-2.959,2.961-2.959h10.355L41.244,67.076z M47.629,24.171H29.874v2.959h17.755V24.171z M47.629,30.091H29.874v2.959
			h17.755V30.091z M47.629,36.008H29.874v2.959h17.755V36.008z M29.874,44.885h17.755v-2.959H29.874V44.885z"/>
	</g>
</g>
</svg>
