<?xml version="1.0" encoding="utf-8"?>
<!-- Generator: Adobe Illustrator 15.0.0, SVG Export Plug-In . SVG Version: 6.00 Build 0)  -->
<!DOCTYPE svg PUBLIC "-//W3C//DTD SVG 1.1//EN" "http://www.w3.org/Graphics/SVG/1.1/DTD/svg11.dtd">
<svg version="1.1" id="Layer_1" xmlns="http://www.w3.org/2000/svg" xmlns:xlink="http://www.w3.org/1999/xlink" x="0px" y="0px"
	 width="64.25px" height="71px" viewBox="0 0 64.25 71" enable-background="new 0 0 64.25 71" xml:space="preserve">
<g>
	<g>
		<path fill="#C5A981" d="M62.178,35.995c0-6.531-5.264-7.962-7.08-7.962s-4.047,1.104-7.08,1.104c-3.027,0-5.258-1.104-7.074-1.104
			c-1.818,0-7.08,1.431-7.08,7.962c0,6.193,2.658,9.626,2.658,11.502c0,1.088-0.086,10.56,1.217,16.172
			c0.938,4.043,2.193,6.831,3.707,6.831c1.518,0,1.441-5.25,2.137-9.047c0.695-3.801,2.418-8.646,4.436-8.646
			c2.025,0,3.74,4.846,4.434,8.646c0.697,3.797,0.621,9.047,2.135,9.047c1.516,0,2.773-2.792,3.715-6.831
			c1.305-5.612,1.217-15.084,1.217-16.172C59.525,45.618,62.178,42.185,62.178,35.995z M30.673,63.155H7.023
			c-1.565,0-2.835-1.396-2.835-3.116V13.046c0-1.72,1.27-3.121,2.835-3.121h7.226v1.029c0,1.734,1.414,3.147,3.145,3.147h16.712
			c1.734,0,3.146-1.41,3.146-3.147V9.926h7.23c1.563,0,2.838,1.4,2.838,3.122V25.03c0,0.584,0.473,1.059,1.057,1.059
			s1.057-0.474,1.057-1.059V13.046c0-2.885-2.217-5.238-4.951-5.238h-7.23V6.78c0-1.738-1.406-3.147-3.145-3.147h-4.297
			C29.342,1.832,27.696,0.5,25.756,0.5c-1.948,0-3.586,1.332-4.058,3.133h-4.299c-1.734,0-3.145,1.409-3.145,3.147v1.031H7.025
			c-2.729,0-4.953,2.35-4.953,5.236v46.991c0,2.89,2.224,5.237,4.953,5.237h23.649c0.586,0,1.058-0.477,1.058-1.062
			C31.732,63.628,31.261,63.155,30.673,63.155z M11.267,17.84c-2.027,0-3.672,1.65-3.672,3.672c0,2.023,1.645,3.669,3.672,3.669
			c2.021,0,3.666-1.646,3.666-3.669C14.933,19.49,13.288,17.84,11.267,17.84z M11.267,23.065c-0.859,0-1.553-0.697-1.553-1.557
			c0-0.857,0.693-1.555,1.553-1.555c0.854,0,1.553,0.697,1.553,1.555C12.819,22.37,12.123,23.065,11.267,23.065z M11.267,28.288
			c-2.027,0-3.672,1.646-3.672,3.666c0,2.025,1.645,3.67,3.672,3.67c2.021,0,3.666-1.645,3.666-3.67
			C14.933,29.933,13.288,28.288,11.267,28.288z M11.267,33.511c-0.859,0-1.553-0.698-1.553-1.555c0-0.855,0.693-1.553,1.553-1.553
			c0.854,0,1.553,0.697,1.553,1.553C12.819,32.811,12.123,33.511,11.267,33.511z M11.267,38.729c-2.027,0-3.672,1.65-3.672,3.67
			s1.645,3.666,3.672,3.666c2.021,0,3.666-1.646,3.666-3.666S13.288,38.729,11.267,38.729z M11.267,43.952
			c-0.859,0-1.553-0.699-1.553-1.553c0-0.855,0.693-1.554,1.553-1.554c0.854,0,1.553,0.698,1.553,1.554
			C12.819,43.257,12.123,43.952,11.267,43.952z M11.267,49.178c-2.027,0-3.672,1.647-3.672,3.663c0,2.028,1.645,3.672,3.672,3.672
			c2.021,0,3.666-1.644,3.666-3.672C14.933,50.822,13.288,49.178,11.267,49.178z M11.267,54.396c-0.859,0-1.553-0.697-1.553-1.556
			c0-0.853,0.693-1.551,1.553-1.551c0.854,0,1.553,0.695,1.553,1.551C12.819,53.699,12.123,54.396,11.267,54.396z M19.577,22.571
			h5.163c0.583,0,1.058-0.473,1.058-1.06c0-0.585-0.475-1.057-1.058-1.057h-5.163c-0.582,0-1.055,0.472-1.055,1.057
			C18.522,22.099,18.995,22.571,19.577,22.571z M42.85,22.571c0.584,0,1.061-0.473,1.061-1.06c0-0.585-0.473-1.057-1.061-1.057
			H30.065c-0.586,0-1.06,0.472-1.06,1.057s0.474,1.06,1.06,1.06H42.85z M19.577,33.018h6.691c0.584,0,1.058-0.474,1.058-1.062
			c0-0.584-0.47-1.057-1.058-1.057h-6.691c-0.582,0-1.055,0.473-1.055,1.057C18.522,32.542,18.993,33.018,19.577,33.018z
			 M19.577,43.458h4.848c0.586,0,1.058-0.471,1.058-1.059c0-0.582-0.472-1.057-1.058-1.057h-4.848c-0.582,0-1.055,0.475-1.055,1.057
			C18.522,42.985,18.995,43.458,19.577,43.458z M19.577,53.902h9.082c0.585,0,1.057-0.475,1.057-1.062
			c0-0.58-0.472-1.053-1.057-1.053h-9.082c-0.582,0-1.055,0.473-1.055,1.053C18.522,53.428,18.995,53.902,19.577,53.902z"/>
	</g>
</g>
</svg>
