<?xml version="1.0" encoding="utf-8"?>
<!-- Generator: Adobe Illustrator 15.0.0, SVG Export Plug-In . SVG Version: 6.00 Build 0)  -->
<!DOCTYPE svg PUBLIC "-//W3C//DTD SVG 1.1//EN" "http://www.w3.org/Graphics/SVG/1.1/DTD/svg11.dtd">
<svg version="1.1" id="Layer_1" xmlns="http://www.w3.org/2000/svg" xmlns:xlink="http://www.w3.org/1999/xlink" x="0px" y="0px"
	 width="88px" height="71px" viewBox="0 0 88 71" enable-background="new 0 0 88 71" xml:space="preserve">
<g>
	<g>
		<path fill="#C5A981" d="M83.945,61.543L54.552,45.98c-0.68-0.342-1.415-0.517-2.149-0.517H30.135L9.027,24.357
			c-0.889-0.893-2.077-1.385-3.341-1.385c-1.268,0-2.454,0.49-3.348,1.383C1.444,25.25,0.953,26.438,0.953,27.7
			c0,1.265,0.491,2.452,1.385,3.345l31.146,31.145c0.88,0.881,2.099,1.386,3.344,1.386h0.251l17.249-7.106l25.337,13.509
			c0.694,0.35,1.407,0.521,2.149,0.521c1.799,0,3.418-0.997,4.227-2.604c0.354-0.703,0.527-1.488,0.504-2.271
			C86.49,63.888,85.494,62.324,83.945,61.543z M83.773,66.754c-0.375,0.743-1.125,1.205-1.959,1.205
			c-0.342,0-0.672-0.08-0.982-0.236L54.467,53.668l-17.862,7.357c-0.497-0.053-0.971-0.275-1.326-0.631L4.131,29.25
			c-0.414-0.414-0.641-0.964-0.641-1.551c0-0.585,0.228-1.135,0.641-1.549c0.414-0.412,0.965-0.641,1.549-0.641
			c0.59,0,1.139,0.227,1.549,0.639l21.854,21.853h23.318v0.001c0.341,0,0.682,0.082,0.985,0.234l29.393,15.561
			c0.74,0.375,1.203,1.102,1.229,1.907C84.02,66.068,83.94,66.424,83.773,66.754z M20.433,23.736
			c-0.88,0.884-1.364,2.054-1.364,3.296c0,1.244,0.484,2.414,1.363,3.295l10.179,10.177c0.881,0.881,2.051,1.365,3.295,1.365h20.933
			l24.444,12.997c0.68,0.342,1.381,0.508,2.111,0.508c1.777,0,3.377-0.987,4.172-2.577c0.303-0.607,0.468-1.257,0.49-1.928
			c0.06-1.814-0.951-3.512-2.574-4.324l-25.414-13.49c-0.673-0.338-1.394-0.508-2.113-0.508H35.837l-8.812-8.811
			c-0.881-0.882-2.051-1.366-3.295-1.366C22.484,22.37,21.314,22.855,20.433,23.736z M34.785,35.086h21.17
			c0.328,0,0.656,0.078,0.95,0.225l25.413,13.488c0.768,0.386,1.228,1.159,1.2,1.985c-0.01,0.306-0.085,0.601-0.224,0.878
			c-0.361,0.724-1.09,1.174-1.9,1.174c-0.332,0-0.65-0.076-0.947-0.225L55.473,39.332H33.906c-0.566,0-1.099-0.222-1.5-0.622
			L22.229,28.534c-0.4-0.401-0.621-0.935-0.621-1.501s0.222-1.1,0.623-1.503c0.4-0.4,0.934-0.621,1.5-0.622
			c0.566,0,1.099,0.222,1.5,0.623L34.785,35.086z M15.542,24.309c4.589,0,8.321-3.732,8.321-8.32s-3.733-8.32-8.321-8.32
			c-4.587,0-8.32,3.732-8.32,8.32C7.222,20.576,10.955,24.309,15.542,24.309z M15.542,10.206c3.189,0,5.783,2.594,5.783,5.781
			c0,3.188-2.594,5.782-5.783,5.782c-3.188,0-5.781-2.594-5.781-5.782C9.761,12.8,12.355,10.206,15.542,10.206z M41.946,8.565
			l0.009-1.721h9.436c1.232,0,2.236,1.003,2.236,2.235v19.322h2.74V9.081c0-2.743-2.232-4.975-4.976-4.975h-10.73l-0.519-0.639
			c-1.534-1.885-3.797-2.966-6.208-2.966c-1.998,0-3.883,0.724-5.356,2.05l11.318,11.316C41.208,12.408,41.934,10.543,41.946,8.565z
			"/>
	</g>
</g>
</svg>
