<?xml version="1.0" encoding="utf-8"?>
<!-- Generator: Adobe Illustrator 15.0.0, SVG Export Plug-In . SVG Version: 6.00 Build 0)  -->
<!DOCTYPE svg PUBLIC "-//W3C//DTD SVG 1.1//EN" "http://www.w3.org/Graphics/SVG/1.1/DTD/svg11.dtd">
<svg version="1.1" id="Layer_1" xmlns="http://www.w3.org/2000/svg" xmlns:xlink="http://www.w3.org/1999/xlink" x="0px" y="0px"
	 width="70px" height="71px" viewBox="0 0 70 71" enable-background="new 0 0 70 71" xml:space="preserve">
<path fill="#C5A981" d="M35,70.503c-6.327,0-12.236-1.578-17.565-4.69c-5.343-3.117-9.63-7.405-12.744-12.745
	c-3.114-5.334-4.693-11.245-4.693-17.566s1.579-12.232,4.693-17.569c3.112-5.335,7.4-9.623,12.744-12.744
	C22.778,2.076,28.688,0.497,35,0.497c6.314,0,12.226,1.579,17.572,4.695c5.338,3.117,9.623,7.404,12.734,12.742
	c3.117,5.33,4.695,11.24,4.695,17.566s-1.578,12.236-4.695,17.565c-3.111,5.341-7.396,9.629-12.736,12.745
	C47.238,68.925,41.328,70.503,35,70.503z M34.999,3.596c-5.757,0-11.146,1.442-16.02,4.287c-4.867,2.839-8.775,6.745-11.615,11.609
	C4.521,24.36,3.079,29.749,3.079,35.505s1.442,11.145,4.285,16.014c2.843,4.863,6.751,8.768,11.615,11.606
	c4.866,2.84,10.256,4.278,16.02,4.278c5.767,0,11.158-1.438,16.021-4.278c4.863-2.839,8.77-6.743,11.615-11.604
	c2.846-4.876,4.287-10.264,4.287-16.016c0-5.758-1.443-11.146-4.287-16.013c-2.844-4.864-6.752-8.771-11.615-11.609
	C46.148,5.038,40.758,3.596,34.999,3.596z M23.87,43.281c-0.177,0-0.227-0.05-0.26-0.084c-0.029-0.03-0.08-0.08-0.08-0.258v-3.014
	c0-0.177,0.051-0.229,0.086-0.264c0.027-0.028,0.076-0.077,0.252-0.077H36.75V16.007c0-0.176,0.051-0.227,0.086-0.264
	c0.033-0.033,0.078-0.077,0.258-0.077h3.012c0.178,0,0.229,0.05,0.26,0.081c0.043,0.043,0.082,0.098,0.082,0.26v26.933
	c0,0.176-0.049,0.225-0.08,0.257c-0.035,0.036-0.084,0.085-0.262,0.085H23.87z"/>
</svg>
