<?xml version="1.0" encoding="utf-8"?>
<!-- Generator: Adobe Illustrator 15.0.0, SVG Export Plug-In . SVG Version: 6.00 Build 0)  -->
<!DOCTYPE svg PUBLIC "-//W3C//DTD SVG 1.1//EN" "http://www.w3.org/Graphics/SVG/1.1/DTD/svg11.dtd">
<svg version="1.1" id="Layer_1" xmlns="http://www.w3.org/2000/svg" xmlns:xlink="http://www.w3.org/1999/xlink" x="0px" y="0px"
	 width="59.75px" height="71px" viewBox="0 0 59.75 71" enable-background="new 0 0 59.75 71" xml:space="preserve">
<path fill="#C5A981" d="M40.293,70.503c-2.889,0-3.338-4.103-3.959-9.777c-0.211-1.921-0.428-3.905-0.752-5.668
	c-1.357-7.427-4.096-12.603-5.707-12.603c-1.608,0-4.349,5.176-5.707,12.603c-0.323,1.763-0.54,3.747-0.751,5.668
	c-0.622,5.675-1.071,9.777-3.958,9.777c-2.986,0-5.34-3.883-7.197-11.869c-1.748-7.525-1.981-19.288-1.964-25.631v-0.308
	c0-0.804-0.521-2.146-1.123-3.698c-1.228-3.166-3.084-7.948-3.084-14.532c0-11.401,9.306-13.967,12.565-13.967
	c1.417,0,2.919,0.362,4.51,0.747c1.949,0.471,4.159,1.005,6.709,1.005c2.55,0,4.759-0.534,6.708-1.005
	c1.592-0.385,3.094-0.747,4.51-0.747c3.26,0,12.564,2.565,12.564,13.967c0,6.583-1.855,11.366-3.084,14.532
	c-0.602,1.553-1.121,2.895-1.121,3.698v0.308c0.018,6.344-0.215,18.107-1.963,25.631C45.633,66.62,43.277,70.503,40.293,70.503z
	 M29.875,39.763c5.49,0,8.078,13.294,8.355,14.811c0.342,1.857,0.564,3.891,0.779,5.858c0.289,2.632,0.719,6.563,1.406,7.364
	c0.904-0.186,2.736-2.399,4.451-9.772c1.25-5.378,1.922-14.263,1.893-25.013v-0.315c0-1.308,0.576-2.793,1.305-4.672
	c1.225-3.157,2.902-7.479,2.902-13.559c0-9.204-7.311-11.275-9.873-11.275c-1.096,0-2.385,0.312-3.877,0.673
	c-2.096,0.507-4.471,1.08-7.341,1.08c-2.87,0-5.246-0.573-7.342-1.08c-1.492-0.361-2.781-0.673-3.877-0.673
	c-2.562,0-9.873,2.071-9.873,11.275c0,6.079,1.678,10.401,2.902,13.559c0.729,1.88,1.305,3.364,1.305,4.672v0.314
	c-0.028,10.75,0.645,19.635,1.895,25.015c1.714,7.372,3.545,9.586,4.451,9.771c0.686-0.801,1.116-4.732,1.405-7.364
	c0.215-1.968,0.438-4.001,0.778-5.859C21.797,53.057,24.388,39.763,29.875,39.763z"/>
</svg>
