<?xml version="1.0" encoding="utf-8"?>
<!-- Generator: Adobe Illustrator 15.0.0, SVG Export Plug-In . SVG Version: 6.00 Build 0)  -->
<!DOCTYPE svg PUBLIC "-//W3C//DTD SVG 1.1//EN" "http://www.w3.org/Graphics/SVG/1.1/DTD/svg11.dtd">
<svg version="1.1" id="Layer_1" xmlns="http://www.w3.org/2000/svg" xmlns:xlink="http://www.w3.org/1999/xlink" x="0px" y="0px"
	 width="135.334px" height="26px" viewBox="0 0 135.334 26" enable-background="new 0 0 135.334 26" xml:space="preserve">
<g>
	<g>
		<path fill="#FDAD00" d="M25.002,9.435l-6.329-0.923l-2.836-5.735c-0.16-0.344-0.365-0.518-0.618-0.518
			c-0.252,0-0.458,0.174-0.618,0.518l-2.836,5.735L5.436,9.435C4.965,9.51,4.729,9.703,4.729,10.014
			c0,0.176,0.105,0.379,0.315,0.605l4.589,4.463L8.55,21.384c-0.018,0.118-0.025,0.204-0.025,0.254c0,0.176,0.044,0.326,0.133,0.446
			c0.088,0.122,0.221,0.185,0.396,0.185c0.151,0,0.319-0.053,0.504-0.152l5.661-2.975l5.661,2.975
			c0.176,0.1,0.344,0.152,0.504,0.152c0.168,0,0.297-0.063,0.385-0.185c0.088-0.12,0.133-0.271,0.133-0.446
			c0-0.11-0.005-0.193-0.014-0.254l-1.084-6.302l4.576-4.463c0.219-0.219,0.328-0.42,0.328-0.605
			C25.708,9.703,25.473,9.51,25.002,9.435z M51.124,9.435l-6.328-0.923l-2.837-5.735c-0.159-0.344-0.366-0.518-0.618-0.518
			s-0.458,0.174-0.617,0.518l-2.837,5.735l-6.329,0.923c-0.471,0.075-0.705,0.268-0.705,0.579c0,0.176,0.104,0.379,0.314,0.605
			l4.589,4.463l-1.084,6.302c-0.017,0.118-0.025,0.204-0.025,0.254c0,0.176,0.044,0.326,0.132,0.446
			c0.089,0.122,0.221,0.185,0.398,0.185c0.15,0,0.318-0.053,0.504-0.152l5.66-2.975l5.661,2.975c0.177,0.1,0.345,0.152,0.504,0.152
			c0.168,0,0.296-0.063,0.385-0.185c0.089-0.12,0.132-0.271,0.132-0.446c0-0.11-0.004-0.193-0.012-0.254l-1.084-6.302l4.576-4.463
			c0.219-0.219,0.327-0.42,0.327-0.605C51.83,9.703,51.595,9.51,51.124,9.435z M77.247,9.435l-6.329-0.923l-2.837-5.735
			c-0.16-0.344-0.365-0.518-0.617-0.518s-0.459,0.174-0.618,0.518l-2.837,5.735l-6.328,0.923c-0.471,0.075-0.707,0.268-0.707,0.579
			c0,0.176,0.105,0.379,0.315,0.605l4.589,4.463l-1.084,6.302c-0.017,0.118-0.025,0.204-0.025,0.254
			c0,0.176,0.045,0.326,0.133,0.446c0.088,0.122,0.221,0.185,0.396,0.185c0.152,0,0.32-0.053,0.505-0.152l5.661-2.975l5.66,2.975
			c0.177,0.1,0.345,0.152,0.504,0.152c0.168,0,0.297-0.063,0.385-0.185c0.088-0.12,0.133-0.271,0.133-0.446
			c0-0.11-0.005-0.193-0.013-0.254l-1.084-6.302l4.576-4.463c0.218-0.219,0.327-0.42,0.327-0.605
			C77.952,9.703,77.717,9.51,77.247,9.435z M103.369,9.435L97.04,8.512l-2.837-5.735c-0.159-0.344-0.365-0.518-0.617-0.518
			c-0.253,0-0.459,0.174-0.618,0.518l-2.837,5.735l-6.329,0.923c-0.471,0.075-0.705,0.268-0.705,0.579
			c0,0.176,0.104,0.379,0.314,0.605l4.59,4.463l-1.085,6.302c-0.017,0.118-0.024,0.204-0.024,0.254c0,0.176,0.044,0.326,0.132,0.446
			c0.088,0.122,0.221,0.185,0.397,0.185c0.151,0,0.319-0.053,0.504-0.152l5.661-2.975l5.66,2.975c0.177,0.1,0.345,0.152,0.505,0.152
			c0.168,0,0.296-0.063,0.384-0.185c0.089-0.12,0.133-0.271,0.133-0.446c0-0.11-0.005-0.193-0.013-0.254l-1.084-6.302l4.576-4.463
			c0.219-0.219,0.328-0.42,0.328-0.605C104.075,9.703,103.84,9.51,103.369,9.435z M130.197,10.014c0-0.312-0.235-0.504-0.706-0.579
			l-6.329-0.923l-2.837-5.735c-0.159-0.344-0.365-0.518-0.617-0.518s-0.458,0.174-0.618,0.518l-2.836,5.735l-6.329,0.923
			c-0.471,0.075-0.706,0.268-0.706,0.579c0,0.176,0.104,0.379,0.315,0.605l4.589,4.463l-1.085,6.302
			c-0.017,0.118-0.024,0.204-0.024,0.254c0,0.176,0.044,0.326,0.132,0.446c0.089,0.122,0.221,0.185,0.397,0.185
			c0.151,0,0.319-0.053,0.504-0.152l5.661-2.975l5.66,2.975c0.177,0.1,0.345,0.152,0.505,0.152c0.168,0,0.296-0.063,0.384-0.185
			c0.089-0.12,0.133-0.271,0.133-0.446c0-0.11-0.004-0.193-0.013-0.254l-1.084-6.302l4.576-4.463
			C130.088,10.4,130.197,10.199,130.197,10.014z"/>
	</g>
</g>
</svg>
